%TF.GenerationSoftware,KiCad,Pcbnew,10.0.3*%
%TF.CreationDate,2026-05-17T23:10:35+05:30*%
%TF.ProjectId,Astable_Multivibrator,41737461-626c-4655-9f4d-756c74697669,rev?*%
%TF.SameCoordinates,Original*%
%TF.FileFunction,Copper,L1,Top*%
%TF.FilePolarity,Positive*%
%FSLAX46Y46*%
G04 Gerber Fmt 4.6, Leading zero omitted, Abs format (unit mm)*
G04 Created by KiCad (PCBNEW 10.0.3) date 2026-05-17 23:10:35*
%MOMM*%
%LPD*%
G01*
G04 APERTURE LIST*
G04 Aperture macros list*
%AMRoundRect*
0 Rectangle with rounded corners*
0 $1 Rounding radius*
0 $2 $3 $4 $5 $6 $7 $8 $9 X,Y pos of 4 corners*
0 Add a 4 corners polygon primitive as box body*
4,1,4,$2,$3,$4,$5,$6,$7,$8,$9,$2,$3,0*
0 Add four circle primitives for the rounded corners*
1,1,$1+$1,$2,$3*
1,1,$1+$1,$4,$5*
1,1,$1+$1,$6,$7*
1,1,$1+$1,$8,$9*
0 Add four rect primitives between the rounded corners*
20,1,$1+$1,$2,$3,$4,$5,0*
20,1,$1+$1,$4,$5,$6,$7,0*
20,1,$1+$1,$6,$7,$8,$9,0*
20,1,$1+$1,$8,$9,$2,$3,0*%
G04 Aperture macros list end*
%TA.AperFunction,ComponentPad*%
%ADD10C,1.800000*%
%TD*%
%TA.AperFunction,ComponentPad*%
%ADD11R,1.800000X1.800000*%
%TD*%
%TA.AperFunction,ComponentPad*%
%ADD12C,1.600000*%
%TD*%
%TA.AperFunction,ComponentPad*%
%ADD13RoundRect,0.250000X-1.050000X1.050000X-1.050000X-1.050000X1.050000X-1.050000X1.050000X1.050000X0*%
%TD*%
%TA.AperFunction,ComponentPad*%
%ADD14C,2.600000*%
%TD*%
%TA.AperFunction,ComponentPad*%
%ADD15RoundRect,0.250000X-0.550000X-0.550000X0.550000X-0.550000X0.550000X0.550000X-0.550000X0.550000X0*%
%TD*%
%TA.AperFunction,ViaPad*%
%ADD16C,0.600000*%
%TD*%
%TA.AperFunction,Conductor*%
%ADD17C,0.200000*%
%TD*%
G04 APERTURE END LIST*
D10*
%TO.P,D1,2,A_2*%
%TO.N,Net-(D1-A)*%
X158765000Y-104000000D03*
D11*
%TO.P,D1,1,K_1*%
%TO.N,GND*%
X156225000Y-104000000D03*
%TD*%
D12*
%TO.P,R2,2*%
%TO.N,Net-(U1-THRES)*%
X152000000Y-79500000D03*
%TO.P,R2,1*%
%TO.N,Net-(U1-DISCH)*%
X152000000Y-87120000D03*
%TD*%
%TO.P,R3,1*%
%TO.N,Net-(J2-Pin_1)*%
X158500000Y-89690000D03*
%TO.P,R3,2*%
%TO.N,Net-(D1-A)*%
X158500000Y-97310000D03*
%TD*%
%TO.P,R1,1*%
%TO.N,VCC*%
X152000000Y-89880000D03*
%TO.P,R1,2*%
%TO.N,Net-(U1-DISCH)*%
X152000000Y-97500000D03*
%TD*%
D13*
%TO.P,J2,1,Pin_1_1*%
%TO.N,Net-(J2-Pin_1)*%
X168327500Y-91455000D03*
D14*
%TO.P,J2,2,Pin_2_2*%
%TO.N,GND*%
X168327500Y-96535000D03*
%TD*%
D13*
%TO.P,J1,1,Pin_1_1*%
%TO.N,GND*%
X130000000Y-90920000D03*
D14*
%TO.P,J1,2,Pin_2_2*%
%TO.N,VCC*%
X130000000Y-96000000D03*
%TD*%
D12*
%TO.P,C2,1*%
%TO.N,GND*%
X139500000Y-83000000D03*
%TO.P,C2,2*%
%TO.N,Net-(U1-CONT)*%
X144500000Y-83000000D03*
%TD*%
D15*
%TO.P,C1,1*%
%TO.N,Net-(U1-THRES)*%
X140544888Y-104000000D03*
D12*
%TO.P,C1,2*%
%TO.N,GND*%
X142544888Y-104000000D03*
%TD*%
D15*
%TO.P,U1,1,GND_1*%
%TO.N,GND*%
X138585000Y-90045000D03*
D12*
%TO.P,U1,2,TRIG_2*%
%TO.N,Net-(U1-THRES)*%
X138585000Y-92585000D03*
%TO.P,U1,3,OUT_3*%
%TO.N,Net-(J2-Pin_1)*%
X138585000Y-95125000D03*
%TO.P,U1,4,~{RST}_4*%
%TO.N,VCC*%
X138585000Y-97665000D03*
%TO.P,U1,5,CONT_5*%
%TO.N,Net-(U1-CONT)*%
X146205000Y-97665000D03*
%TO.P,U1,6,THRES_6*%
%TO.N,Net-(U1-THRES)*%
X146205000Y-95125000D03*
%TO.P,U1,7,DISCH_7*%
%TO.N,Net-(U1-DISCH)*%
X146205000Y-92585000D03*
%TO.P,U1,8,VCC_8*%
%TO.N,VCC*%
X146205000Y-90045000D03*
%TD*%
D16*
%TO.N,Net-(U1-DISCH)*%
X146099131Y-93397974D03*
%TO.N,Net-(U1-CONT)*%
X149500000Y-96000000D03*
%TO.N,Net-(U1-THRES)*%
X136500000Y-96500000D03*
X143144888Y-100500000D03*
%TD*%
%TO.N,GND*%
D17*
X168327500Y-96535000D02*
X163681250Y-101181250D01*
X163681250Y-101181250D02*
X163681250Y-103250000D01*
X155125000Y-102900000D02*
X156225000Y-104000000D01*
X139444888Y-104784744D02*
X139444888Y-103215256D01*
X139760144Y-102900000D02*
X155125000Y-102900000D01*
X140260144Y-105600000D02*
X139444888Y-104784744D01*
X163681250Y-103250000D02*
X161331250Y-105600000D01*
X161331250Y-105600000D02*
X140260144Y-105600000D01*
X139444888Y-103215256D02*
X139760144Y-102900000D01*
%TO.N,Net-(U1-DISCH)*%
X146205000Y-93292105D02*
X146099131Y-93397974D01*
X146205000Y-92585000D02*
X146205000Y-93292105D01*
%TO.N,Net-(U1-CONT)*%
X150565000Y-94935000D02*
X149500000Y-96000000D01*
X167732244Y-94935000D02*
X150565000Y-94935000D01*
X169927500Y-92739744D02*
X167732244Y-94935000D01*
X157757244Y-78000000D02*
X169927500Y-90170256D01*
X149500000Y-78000000D02*
X157757244Y-78000000D01*
X169927500Y-90170256D02*
X169927500Y-92739744D01*
X144500000Y-83000000D02*
X149500000Y-78000000D01*
%TO.N,Net-(U1-THRES)*%
X139685000Y-93685000D02*
X138585000Y-92585000D01*
X139685000Y-95580635D02*
X139685000Y-93685000D01*
X138765635Y-96500000D02*
X139685000Y-95580635D01*
X136500000Y-96500000D02*
X138765635Y-96500000D01*
X146205000Y-95125000D02*
X143144888Y-98185112D01*
X143144888Y-98185112D02*
X143144888Y-100500000D01*
%TO.N,VCC*%
X147305000Y-93040635D02*
X147305000Y-91145000D01*
X147305000Y-91145000D02*
X146205000Y-90045000D01*
X146345635Y-94000000D02*
X147305000Y-93040635D01*
X142250000Y-94000000D02*
X146345635Y-94000000D01*
X138585000Y-97665000D02*
X142250000Y-94000000D01*
%TO.N,GND*%
X130955000Y-90045000D02*
X138585000Y-90045000D01*
X127500000Y-93500000D02*
X130955000Y-90045000D01*
X127500000Y-100000000D02*
X127500000Y-93500000D01*
X131500000Y-100000000D02*
X127500000Y-100000000D01*
X133435000Y-98065000D02*
X131500000Y-100000000D01*
X137485000Y-98120635D02*
X137485000Y-98065000D01*
X139685000Y-98120635D02*
X139040635Y-98765000D01*
X139685000Y-97209365D02*
X139685000Y-98120635D01*
X138129365Y-98765000D02*
X137485000Y-98120635D01*
X139040635Y-98765000D02*
X138129365Y-98765000D01*
X142544888Y-100069253D02*
X139685000Y-97209365D01*
X142544888Y-104000000D02*
X142544888Y-100069253D01*
X137485000Y-98065000D02*
X133435000Y-98065000D01*
%TO.N,Net-(J2-Pin_1)*%
X158500000Y-84444365D02*
X158500000Y-89690000D01*
X152455635Y-78400000D02*
X158500000Y-84444365D01*
X151544365Y-78400000D02*
X152455635Y-78400000D01*
X150900000Y-79044365D02*
X151544365Y-78400000D01*
X150900000Y-79614744D02*
X150900000Y-79044365D01*
X139029744Y-91485000D02*
X150900000Y-79614744D01*
X138129365Y-91485000D02*
X139029744Y-91485000D01*
X137485000Y-92129365D02*
X138129365Y-91485000D01*
X137485000Y-94025000D02*
X137485000Y-92129365D01*
X138585000Y-95125000D02*
X137485000Y-94025000D01*
%TO.N,Net-(D1-A)*%
X158500000Y-97310000D02*
X158500000Y-103735000D01*
X158500000Y-103735000D02*
X158765000Y-104000000D01*
%TO.N,Net-(U1-DISCH)*%
X145105000Y-91485000D02*
X146205000Y-92585000D01*
X147574365Y-87120000D02*
X145105000Y-89589365D01*
X145105000Y-89589365D02*
X145105000Y-91485000D01*
X152000000Y-87120000D02*
X147574365Y-87120000D01*
%TO.N,Net-(J2-Pin_1)*%
X160265000Y-91455000D02*
X158500000Y-89690000D01*
X168327500Y-91455000D02*
X160265000Y-91455000D01*
%TO.N,Net-(U1-THRES)*%
X149680000Y-98600000D02*
X146205000Y-95125000D01*
X153100000Y-98600000D02*
X149680000Y-98600000D01*
X157425000Y-102925000D02*
X153100000Y-98600000D01*
X141744888Y-105200000D02*
X157425000Y-105200000D01*
X140544888Y-104000000D02*
X141744888Y-105200000D01*
X157425000Y-105200000D02*
X157425000Y-102925000D01*
%TO.N,GND*%
X142544888Y-104000000D02*
X156225000Y-104000000D01*
X139500000Y-83000000D02*
X139500000Y-89130000D01*
X139500000Y-89130000D02*
X138585000Y-90045000D01*
%TO.N,Net-(U1-THRES)*%
X148310635Y-95125000D02*
X146205000Y-95125000D01*
X153100000Y-80600000D02*
X153100000Y-90335635D01*
X153100000Y-90335635D02*
X148310635Y-95125000D01*
X152000000Y-79500000D02*
X153100000Y-80600000D01*
%TO.N,VCC*%
X151835000Y-90045000D02*
X152000000Y-89880000D01*
X146205000Y-90045000D02*
X151835000Y-90045000D01*
X131585000Y-97665000D02*
X138585000Y-97665000D01*
X130000000Y-96080000D02*
X131585000Y-97665000D01*
%TD*%
M02*
