%TF.GenerationSoftware,KiCad,Pcbnew,10.0.3*%
%TF.CreationDate,2026-05-17T23:10:35+05:30*%
%TF.ProjectId,Astable_Multivibrator,41737461-626c-4655-9f4d-756c74697669,rev?*%
%TF.SameCoordinates,Original*%
%TF.FileFunction,Copper,L2,Bot*%
%TF.FilePolarity,Positive*%
%FSLAX46Y46*%
G04 Gerber Fmt 4.6, Leading zero omitted, Abs format (unit mm)*
G04 Created by KiCad (PCBNEW 10.0.3) date 2026-05-17 23:10:35*
%MOMM*%
%LPD*%
G01*
G04 APERTURE LIST*
G04 Aperture macros list*
%AMRoundRect*
0 Rectangle with rounded corners*
0 $1 Rounding radius*
0 $2 $3 $4 $5 $6 $7 $8 $9 X,Y pos of 4 corners*
0 Add a 4 corners polygon primitive as box body*
4,1,4,$2,$3,$4,$5,$6,$7,$8,$9,$2,$3,0*
0 Add four circle primitives for the rounded corners*
1,1,$1+$1,$2,$3*
1,1,$1+$1,$4,$5*
1,1,$1+$1,$6,$7*
1,1,$1+$1,$8,$9*
0 Add four rect primitives between the rounded corners*
20,1,$1+$1,$2,$3,$4,$5,0*
20,1,$1+$1,$4,$5,$6,$7,0*
20,1,$1+$1,$6,$7,$8,$9,0*
20,1,$1+$1,$8,$9,$2,$3,0*%
G04 Aperture macros list end*
%TA.AperFunction,NonConductor*%
%ADD10C,0.200000*%
%TD*%
%TA.AperFunction,ComponentPad*%
%ADD11C,1.800000*%
%TD*%
%TA.AperFunction,ComponentPad*%
%ADD12R,1.800000X1.800000*%
%TD*%
%TA.AperFunction,ComponentPad*%
%ADD13C,1.600000*%
%TD*%
%TA.AperFunction,ComponentPad*%
%ADD14RoundRect,0.250000X-1.050000X1.050000X-1.050000X-1.050000X1.050000X-1.050000X1.050000X1.050000X0*%
%TD*%
%TA.AperFunction,ComponentPad*%
%ADD15C,2.600000*%
%TD*%
%TA.AperFunction,ComponentPad*%
%ADD16RoundRect,0.250000X-0.550000X-0.550000X0.550000X-0.550000X0.550000X0.550000X-0.550000X0.550000X0*%
%TD*%
%TA.AperFunction,ViaPad*%
%ADD17C,0.600000*%
%TD*%
%TA.AperFunction,Conductor*%
%ADD18C,0.200000*%
%TD*%
G04 APERTURE END LIST*
D10*
X122000000Y-77000000D02*
X177000000Y-77000000D01*
X177000000Y-109500000D01*
X122000000Y-109500000D01*
X122000000Y-77000000D01*
D11*
%TO.P,D1,2,A_2*%
%TO.N,Net-(D1-A)*%
X158765000Y-104000000D03*
D12*
%TO.P,D1,1,K_1*%
%TO.N,GND*%
X156225000Y-104000000D03*
%TD*%
D13*
%TO.P,R2,2*%
%TO.N,Net-(U1-THRES)*%
X152000000Y-79500000D03*
%TO.P,R2,1*%
%TO.N,Net-(U1-DISCH)*%
X152000000Y-87120000D03*
%TD*%
%TO.P,R3,1*%
%TO.N,Net-(J2-Pin_1)*%
X158500000Y-89690000D03*
%TO.P,R3,2*%
%TO.N,Net-(D1-A)*%
X158500000Y-97310000D03*
%TD*%
%TO.P,R1,1*%
%TO.N,VCC*%
X152000000Y-89880000D03*
%TO.P,R1,2*%
%TO.N,Net-(U1-DISCH)*%
X152000000Y-97500000D03*
%TD*%
D14*
%TO.P,J2,1,Pin_1_1*%
%TO.N,Net-(J2-Pin_1)*%
X168327500Y-91455000D03*
D15*
%TO.P,J2,2,Pin_2_2*%
%TO.N,GND*%
X168327500Y-96535000D03*
%TD*%
D14*
%TO.P,J1,1,Pin_1_1*%
%TO.N,GND*%
X130000000Y-90920000D03*
D15*
%TO.P,J1,2,Pin_2_2*%
%TO.N,VCC*%
X130000000Y-96000000D03*
%TD*%
D13*
%TO.P,C2,1*%
%TO.N,GND*%
X139500000Y-83000000D03*
%TO.P,C2,2*%
%TO.N,Net-(U1-CONT)*%
X144500000Y-83000000D03*
%TD*%
D16*
%TO.P,C1,1*%
%TO.N,Net-(U1-THRES)*%
X140544888Y-104000000D03*
D13*
%TO.P,C1,2*%
%TO.N,GND*%
X142544888Y-104000000D03*
%TD*%
D16*
%TO.P,U1,1,GND_1*%
%TO.N,GND*%
X138585000Y-90045000D03*
D13*
%TO.P,U1,2,TRIG_2*%
%TO.N,Net-(U1-THRES)*%
X138585000Y-92585000D03*
%TO.P,U1,3,OUT_3*%
%TO.N,Net-(J2-Pin_1)*%
X138585000Y-95125000D03*
%TO.P,U1,4,~{RST}_4*%
%TO.N,VCC*%
X138585000Y-97665000D03*
%TO.P,U1,5,CONT_5*%
%TO.N,Net-(U1-CONT)*%
X146205000Y-97665000D03*
%TO.P,U1,6,THRES_6*%
%TO.N,Net-(U1-THRES)*%
X146205000Y-95125000D03*
%TO.P,U1,7,DISCH_7*%
%TO.N,Net-(U1-DISCH)*%
X146205000Y-92585000D03*
%TO.P,U1,8,VCC_8*%
%TO.N,VCC*%
X146205000Y-90045000D03*
%TD*%
D17*
%TO.N,Net-(U1-DISCH)*%
X146099131Y-93397974D03*
%TO.N,Net-(U1-CONT)*%
X149500000Y-96000000D03*
%TO.N,Net-(U1-THRES)*%
X136500000Y-96500000D03*
X143144888Y-100500000D03*
%TD*%
%TO.N,Net-(U1-DISCH)*%
D18*
X147897974Y-93397974D02*
X152000000Y-97500000D01*
X146099131Y-93397974D02*
X147897974Y-93397974D01*
%TO.N,Net-(U1-CONT)*%
X147835000Y-97665000D02*
X146205000Y-97665000D01*
X149500000Y-96000000D02*
X147835000Y-97665000D01*
%TO.N,Net-(U1-THRES)*%
X139500000Y-100500000D02*
X143144888Y-100500000D01*
X136500000Y-97500000D02*
X139500000Y-100500000D01*
X136500000Y-96500000D02*
X136500000Y-97500000D01*
%TD*%
%TA.AperFunction,Conductor*%
%TO.N,GND*%
G36*
X176342539Y-77620185D02*
G01*
X176388294Y-77672989D01*
X176399500Y-77724500D01*
X176399500Y-108775500D01*
X176379815Y-108842539D01*
X176327011Y-108888294D01*
X176275500Y-108899500D01*
X122724500Y-108899500D01*
X122657461Y-108879815D01*
X122611706Y-108827011D01*
X122600500Y-108775500D01*
X122600500Y-103399983D01*
X139244388Y-103399983D01*
X139244388Y-104600001D01*
X139244389Y-104600018D01*
X139254888Y-104702796D01*
X139254889Y-104702799D01*
X139310073Y-104869331D01*
X139310074Y-104869334D01*
X139402176Y-105018656D01*
X139526232Y-105142712D01*
X139675554Y-105234814D01*
X139842091Y-105289999D01*
X139944879Y-105300500D01*
X141144896Y-105300499D01*
X141247685Y-105289999D01*
X141414222Y-105234814D01*
X141563544Y-105142712D01*
X141632767Y-105073489D01*
X141694090Y-105040004D01*
X141763782Y-105044988D01*
X141793334Y-105060853D01*
X141863534Y-105111857D01*
X142045856Y-105204755D01*
X142240470Y-105267990D01*
X142442571Y-105300000D01*
X142647205Y-105300000D01*
X142849305Y-105267990D01*
X143043919Y-105204755D01*
X143226237Y-105111859D01*
X143270809Y-105079474D01*
X142591335Y-104400000D01*
X142597549Y-104400000D01*
X142699282Y-104372741D01*
X142790494Y-104320080D01*
X142864968Y-104245606D01*
X142917629Y-104154394D01*
X142944888Y-104052661D01*
X142944888Y-104046447D01*
X143624362Y-104725921D01*
X143656747Y-104681349D01*
X143749643Y-104499031D01*
X143812877Y-104304417D01*
X143832704Y-104179240D01*
X143832704Y-104179239D01*
X143844888Y-104102316D01*
X143844888Y-103897682D01*
X143812878Y-103695582D01*
X143749643Y-103500968D01*
X143656747Y-103318650D01*
X143624362Y-103274077D01*
X143624362Y-103274076D01*
X142944888Y-103953551D01*
X142944888Y-103947339D01*
X142917629Y-103845606D01*
X142864968Y-103754394D01*
X142790494Y-103679920D01*
X142699282Y-103627259D01*
X142597549Y-103600000D01*
X142591334Y-103600000D01*
X143139180Y-103052155D01*
X154825000Y-103052155D01*
X154825000Y-103750000D01*
X155849722Y-103750000D01*
X155805667Y-103826306D01*
X155775000Y-103940756D01*
X155775000Y-104059244D01*
X155805667Y-104173694D01*
X155849722Y-104250000D01*
X154825000Y-104250000D01*
X154825000Y-104947844D01*
X154831401Y-105007372D01*
X154831403Y-105007379D01*
X154881645Y-105142086D01*
X154881649Y-105142093D01*
X154967809Y-105257187D01*
X154967812Y-105257190D01*
X155082906Y-105343350D01*
X155082913Y-105343354D01*
X155217620Y-105393596D01*
X155217627Y-105393598D01*
X155277155Y-105399999D01*
X155277172Y-105400000D01*
X155975000Y-105400000D01*
X155975000Y-104375277D01*
X156051306Y-104419333D01*
X156165756Y-104450000D01*
X156284244Y-104450000D01*
X156398694Y-104419333D01*
X156475000Y-104375277D01*
X156475000Y-105400000D01*
X157172828Y-105400000D01*
X157172844Y-105399999D01*
X157232372Y-105393598D01*
X157232379Y-105393596D01*
X157367086Y-105343354D01*
X157367093Y-105343350D01*
X157482187Y-105257190D01*
X157482190Y-105257187D01*
X157568350Y-105142093D01*
X157568354Y-105142086D01*
X157598213Y-105062031D01*
X157640084Y-105006097D01*
X157705548Y-104981680D01*
X157773821Y-104996531D01*
X157802076Y-105017683D01*
X157852636Y-105068243D01*
X157852641Y-105068247D01*
X158008192Y-105181260D01*
X158030978Y-105197815D01*
X158147501Y-105257187D01*
X158227393Y-105297895D01*
X158227396Y-105297896D01*
X158332221Y-105331955D01*
X158437049Y-105366015D01*
X158654778Y-105400500D01*
X158654779Y-105400500D01*
X158875221Y-105400500D01*
X158875222Y-105400500D01*
X159092951Y-105366015D01*
X159302606Y-105297895D01*
X159499022Y-105197815D01*
X159677365Y-105068242D01*
X159833242Y-104912365D01*
X159962815Y-104734022D01*
X160062895Y-104537606D01*
X160131015Y-104327951D01*
X160165500Y-104110222D01*
X160165500Y-103889778D01*
X160131015Y-103672049D01*
X160096955Y-103567221D01*
X160062896Y-103462396D01*
X160062895Y-103462393D01*
X160028237Y-103394375D01*
X159962815Y-103265978D01*
X159946260Y-103243192D01*
X159833247Y-103087641D01*
X159833243Y-103087636D01*
X159677363Y-102931756D01*
X159677358Y-102931752D01*
X159499025Y-102802187D01*
X159499024Y-102802186D01*
X159499022Y-102802185D01*
X159426406Y-102765185D01*
X159302606Y-102702104D01*
X159302603Y-102702103D01*
X159092952Y-102633985D01*
X158984086Y-102616742D01*
X158875222Y-102599500D01*
X158654778Y-102599500D01*
X158582201Y-102610995D01*
X158437047Y-102633985D01*
X158227396Y-102702103D01*
X158227393Y-102702104D01*
X158030974Y-102802187D01*
X157852641Y-102931752D01*
X157852636Y-102931756D01*
X157802075Y-102982317D01*
X157740752Y-103015801D01*
X157671060Y-103010816D01*
X157615127Y-102968945D01*
X157598213Y-102937968D01*
X157568354Y-102857913D01*
X157568350Y-102857906D01*
X157482190Y-102742812D01*
X157482187Y-102742809D01*
X157367093Y-102656649D01*
X157367086Y-102656645D01*
X157232379Y-102606403D01*
X157232372Y-102606401D01*
X157172844Y-102600000D01*
X156475000Y-102600000D01*
X156475000Y-103624722D01*
X156398694Y-103580667D01*
X156284244Y-103550000D01*
X156165756Y-103550000D01*
X156051306Y-103580667D01*
X155975000Y-103624722D01*
X155975000Y-102600000D01*
X155277155Y-102600000D01*
X155217627Y-102606401D01*
X155217620Y-102606403D01*
X155082913Y-102656645D01*
X155082906Y-102656649D01*
X154967812Y-102742809D01*
X154967809Y-102742812D01*
X154881649Y-102857906D01*
X154881645Y-102857913D01*
X154831403Y-102992620D01*
X154831401Y-102992627D01*
X154825000Y-103052155D01*
X143139180Y-103052155D01*
X143230165Y-102961170D01*
X143270810Y-102920524D01*
X143270809Y-102920523D01*
X143226247Y-102888147D01*
X143226238Y-102888141D01*
X143043919Y-102795244D01*
X142849305Y-102732009D01*
X142647205Y-102700000D01*
X142442571Y-102700000D01*
X142240470Y-102732009D01*
X142045856Y-102795244D01*
X141863539Y-102888139D01*
X141793332Y-102939148D01*
X141727525Y-102962627D01*
X141659471Y-102946801D01*
X141632766Y-102926510D01*
X141563545Y-102857289D01*
X141563544Y-102857288D01*
X141414222Y-102765186D01*
X141247685Y-102710001D01*
X141247683Y-102710000D01*
X141144898Y-102699500D01*
X139944886Y-102699500D01*
X139944869Y-102699501D01*
X139842091Y-102710000D01*
X139842088Y-102710001D01*
X139675556Y-102765185D01*
X139675551Y-102765187D01*
X139526230Y-102857289D01*
X139402177Y-102981342D01*
X139310075Y-103130663D01*
X139310074Y-103130666D01*
X139254889Y-103297203D01*
X139254889Y-103297204D01*
X139254888Y-103297204D01*
X139244388Y-103399983D01*
X122600500Y-103399983D01*
X122600500Y-95881995D01*
X128199500Y-95881995D01*
X128199500Y-96118004D01*
X128199501Y-96118020D01*
X128229436Y-96345402D01*
X128230307Y-96352014D01*
X128239873Y-96387713D01*
X128291394Y-96579993D01*
X128381714Y-96798045D01*
X128381719Y-96798056D01*
X128428552Y-96879172D01*
X128499727Y-97002450D01*
X128499729Y-97002453D01*
X128499730Y-97002454D01*
X128643406Y-97189697D01*
X128643412Y-97189704D01*
X128810295Y-97356587D01*
X128810302Y-97356593D01*
X128884267Y-97413348D01*
X128997550Y-97500273D01*
X129105587Y-97562648D01*
X129201943Y-97618280D01*
X129201948Y-97618282D01*
X129201951Y-97618284D01*
X129420007Y-97708606D01*
X129647986Y-97769693D01*
X129881989Y-97800500D01*
X129881996Y-97800500D01*
X130118004Y-97800500D01*
X130118011Y-97800500D01*
X130352014Y-97769693D01*
X130579993Y-97708606D01*
X130798049Y-97618284D01*
X131002450Y-97500273D01*
X131189699Y-97356592D01*
X131356592Y-97189699D01*
X131500273Y-97002450D01*
X131618284Y-96798049D01*
X131708606Y-96579993D01*
X131751167Y-96421153D01*
X135699500Y-96421153D01*
X135699500Y-96578846D01*
X135730261Y-96733489D01*
X135730264Y-96733501D01*
X135790602Y-96879172D01*
X135790609Y-96879185D01*
X135878602Y-97010874D01*
X135899480Y-97077551D01*
X135899500Y-97079765D01*
X135899500Y-97413330D01*
X135899499Y-97413348D01*
X135899499Y-97579054D01*
X135899498Y-97579054D01*
X135940423Y-97731785D01*
X135969358Y-97781900D01*
X135969359Y-97781904D01*
X135969360Y-97781904D01*
X136019479Y-97868714D01*
X136019481Y-97868717D01*
X136138349Y-97987585D01*
X136138354Y-97987589D01*
X139131284Y-100980520D01*
X139131286Y-100980521D01*
X139131290Y-100980524D01*
X139268209Y-101059573D01*
X139268216Y-101059577D01*
X139420943Y-101100501D01*
X139420945Y-101100501D01*
X139586654Y-101100501D01*
X139586670Y-101100500D01*
X142565122Y-101100500D01*
X142632161Y-101120185D01*
X142634013Y-101121398D01*
X142765702Y-101209390D01*
X142765715Y-101209397D01*
X142911386Y-101269735D01*
X142911391Y-101269737D01*
X143066041Y-101300499D01*
X143066044Y-101300500D01*
X143066046Y-101300500D01*
X143223732Y-101300500D01*
X143223733Y-101300499D01*
X143378385Y-101269737D01*
X143524067Y-101209394D01*
X143655177Y-101121789D01*
X143766677Y-101010289D01*
X143854282Y-100879179D01*
X143914625Y-100733497D01*
X143945388Y-100578842D01*
X143945388Y-100421158D01*
X143945388Y-100421155D01*
X143945387Y-100421153D01*
X143914626Y-100266510D01*
X143914625Y-100266503D01*
X143914623Y-100266498D01*
X143854285Y-100120827D01*
X143854278Y-100120814D01*
X143766677Y-99989711D01*
X143766674Y-99989707D01*
X143655180Y-99878213D01*
X143655176Y-99878210D01*
X143524073Y-99790609D01*
X143524060Y-99790602D01*
X143378389Y-99730264D01*
X143378377Y-99730261D01*
X143223733Y-99699500D01*
X143223730Y-99699500D01*
X143066046Y-99699500D01*
X143066043Y-99699500D01*
X142911398Y-99730261D01*
X142911386Y-99730264D01*
X142765715Y-99790602D01*
X142765702Y-99790609D01*
X142634013Y-99878602D01*
X142567335Y-99899480D01*
X142565122Y-99899500D01*
X139800098Y-99899500D01*
X139733059Y-99879815D01*
X139712417Y-99863181D01*
X138951992Y-99102756D01*
X138918507Y-99041433D01*
X138923491Y-98971741D01*
X138965363Y-98915808D01*
X139001355Y-98897144D01*
X139084219Y-98870220D01*
X139266610Y-98777287D01*
X139365805Y-98705218D01*
X139432213Y-98656971D01*
X139432215Y-98656968D01*
X139432219Y-98656966D01*
X139576966Y-98512219D01*
X139576968Y-98512215D01*
X139576971Y-98512213D01*
X139642307Y-98422284D01*
X139697287Y-98346610D01*
X139790220Y-98164219D01*
X139853477Y-97969534D01*
X139885500Y-97767352D01*
X139885500Y-97562648D01*
X139853477Y-97360466D01*
X139852218Y-97356592D01*
X139803823Y-97207648D01*
X139790220Y-97165781D01*
X139790218Y-97165778D01*
X139790218Y-97165776D01*
X139756503Y-97099607D01*
X139697287Y-96983390D01*
X139689556Y-96972749D01*
X139576971Y-96817786D01*
X139432213Y-96673028D01*
X139266614Y-96552715D01*
X139231844Y-96534999D01*
X139173917Y-96505483D01*
X139123123Y-96457511D01*
X139106328Y-96389690D01*
X139128865Y-96323555D01*
X139173917Y-96284516D01*
X139266610Y-96237287D01*
X139321077Y-96197715D01*
X139432213Y-96116971D01*
X139432215Y-96116968D01*
X139432219Y-96116966D01*
X139576966Y-95972219D01*
X139576968Y-95972215D01*
X139576971Y-95972213D01*
X139645267Y-95878210D01*
X139697287Y-95806610D01*
X139790220Y-95624219D01*
X139853477Y-95429534D01*
X139885500Y-95227352D01*
X139885500Y-95022648D01*
X139853477Y-94820466D01*
X139850172Y-94810295D01*
X139824127Y-94730137D01*
X139790220Y-94625781D01*
X139790218Y-94625778D01*
X139790218Y-94625776D01*
X139756503Y-94559607D01*
X139697287Y-94443390D01*
X139652479Y-94381716D01*
X139576971Y-94277786D01*
X139432213Y-94133028D01*
X139266614Y-94012715D01*
X139260006Y-94009348D01*
X139173917Y-93965483D01*
X139123123Y-93917511D01*
X139106328Y-93849690D01*
X139128865Y-93783555D01*
X139173917Y-93744516D01*
X139266610Y-93697287D01*
X139287770Y-93681913D01*
X139432213Y-93576971D01*
X139432215Y-93576968D01*
X139432219Y-93576966D01*
X139576966Y-93432219D01*
X139576968Y-93432215D01*
X139576971Y-93432213D01*
X139629732Y-93359590D01*
X139697287Y-93266610D01*
X139790220Y-93084219D01*
X139853477Y-92889534D01*
X139885500Y-92687352D01*
X139885500Y-92482648D01*
X139853477Y-92280466D01*
X139790220Y-92085781D01*
X139790218Y-92085778D01*
X139790218Y-92085776D01*
X139756503Y-92019607D01*
X139697287Y-91903390D01*
X139689556Y-91892749D01*
X139576971Y-91737786D01*
X139432217Y-91593032D01*
X139432212Y-91593028D01*
X139338051Y-91524616D01*
X139295385Y-91469286D01*
X139289406Y-91399673D01*
X139322012Y-91337878D01*
X139371933Y-91306592D01*
X139454117Y-91279359D01*
X139454124Y-91279356D01*
X139603345Y-91187315D01*
X139727315Y-91063345D01*
X139819356Y-90914124D01*
X139819358Y-90914119D01*
X139874505Y-90747697D01*
X139874506Y-90747690D01*
X139884999Y-90644986D01*
X139885000Y-90644973D01*
X139885000Y-90295000D01*
X138900686Y-90295000D01*
X138905080Y-90290606D01*
X138957741Y-90199394D01*
X138985000Y-90097661D01*
X138985000Y-89992339D01*
X138971685Y-89942648D01*
X144904500Y-89942648D01*
X144904500Y-90147351D01*
X144936522Y-90349534D01*
X144999781Y-90544223D01*
X145092715Y-90726613D01*
X145213028Y-90892213D01*
X145357786Y-91036971D01*
X145457751Y-91109598D01*
X145523390Y-91157287D01*
X145614840Y-91203883D01*
X145616080Y-91204515D01*
X145666876Y-91252490D01*
X145683671Y-91320311D01*
X145661134Y-91386446D01*
X145616080Y-91425485D01*
X145523386Y-91472715D01*
X145357786Y-91593028D01*
X145213028Y-91737786D01*
X145092715Y-91903386D01*
X144999781Y-92085776D01*
X144936522Y-92280465D01*
X144904500Y-92482648D01*
X144904500Y-92687351D01*
X144936522Y-92889534D01*
X144999781Y-93084223D01*
X145053582Y-93189812D01*
X145087052Y-93255500D01*
X145092715Y-93266613D01*
X145213028Y-93432213D01*
X145282213Y-93501398D01*
X145315698Y-93562721D01*
X145316149Y-93564887D01*
X145329392Y-93631465D01*
X145329395Y-93631475D01*
X145389733Y-93777146D01*
X145389740Y-93777159D01*
X145473135Y-93901968D01*
X145494013Y-93968646D01*
X145475528Y-94036026D01*
X145442919Y-94071177D01*
X145357782Y-94133032D01*
X145213028Y-94277786D01*
X145092715Y-94443386D01*
X144999781Y-94625776D01*
X144936522Y-94820465D01*
X144904500Y-95022648D01*
X144904500Y-95227351D01*
X144936522Y-95429534D01*
X144999781Y-95624223D01*
X145063691Y-95749653D01*
X145072277Y-95766503D01*
X145092715Y-95806613D01*
X145213028Y-95972213D01*
X145357786Y-96116971D01*
X145468923Y-96197715D01*
X145523390Y-96237287D01*
X145614840Y-96283883D01*
X145616080Y-96284515D01*
X145666876Y-96332490D01*
X145683671Y-96400311D01*
X145661134Y-96466446D01*
X145616080Y-96505485D01*
X145523386Y-96552715D01*
X145357786Y-96673028D01*
X145213028Y-96817786D01*
X145092715Y-96983386D01*
X144999781Y-97165776D01*
X144936522Y-97360465D01*
X144904500Y-97562648D01*
X144904500Y-97767351D01*
X144936522Y-97969534D01*
X144999781Y-98164223D01*
X145051385Y-98265500D01*
X145086797Y-98335000D01*
X145092715Y-98346613D01*
X145213028Y-98512213D01*
X145357786Y-98656971D01*
X145511264Y-98768477D01*
X145523390Y-98777287D01*
X145639607Y-98836503D01*
X145705776Y-98870218D01*
X145705778Y-98870218D01*
X145705781Y-98870220D01*
X145788645Y-98897144D01*
X145900465Y-98933477D01*
X145992677Y-98948082D01*
X146102648Y-98965500D01*
X146102649Y-98965500D01*
X146307351Y-98965500D01*
X146307352Y-98965500D01*
X146509534Y-98933477D01*
X146704219Y-98870220D01*
X146886610Y-98777287D01*
X146985805Y-98705218D01*
X147052213Y-98656971D01*
X147052215Y-98656968D01*
X147052219Y-98656966D01*
X147196966Y-98512219D01*
X147196968Y-98512215D01*
X147196971Y-98512213D01*
X147301913Y-98367770D01*
X147317287Y-98346610D01*
X147324117Y-98333204D01*
X147372091Y-98282409D01*
X147434602Y-98265500D01*
X147748331Y-98265500D01*
X147748347Y-98265501D01*
X147755943Y-98265501D01*
X147914054Y-98265501D01*
X147914057Y-98265501D01*
X148066785Y-98224577D01*
X148116904Y-98195639D01*
X148203716Y-98145520D01*
X148315520Y-98033716D01*
X148315520Y-98033714D01*
X148325728Y-98023507D01*
X148325729Y-98023504D01*
X149514664Y-96834571D01*
X149575985Y-96801088D01*
X149578152Y-96800637D01*
X149578841Y-96800500D01*
X149578842Y-96800500D01*
X149733497Y-96769737D01*
X149879179Y-96709394D01*
X150010289Y-96621789D01*
X150053740Y-96578337D01*
X150115060Y-96544852D01*
X150184752Y-96549835D01*
X150229101Y-96578336D01*
X150468545Y-96817781D01*
X150705921Y-97055157D01*
X150739406Y-97116480D01*
X150736173Y-97181149D01*
X150731523Y-97195460D01*
X150731523Y-97195462D01*
X150705389Y-97360465D01*
X150699500Y-97397648D01*
X150699500Y-97602352D01*
X150702023Y-97618280D01*
X150731522Y-97804534D01*
X150794781Y-97999223D01*
X150812937Y-98034855D01*
X150873053Y-98152839D01*
X150887715Y-98181613D01*
X151008028Y-98347213D01*
X151152786Y-98491971D01*
X151271854Y-98578477D01*
X151318390Y-98612287D01*
X151434607Y-98671503D01*
X151500776Y-98705218D01*
X151500778Y-98705218D01*
X151500781Y-98705220D01*
X151605137Y-98739127D01*
X151695465Y-98768477D01*
X151751070Y-98777284D01*
X151897648Y-98800500D01*
X151897649Y-98800500D01*
X152102351Y-98800500D01*
X152102352Y-98800500D01*
X152304534Y-98768477D01*
X152499219Y-98705220D01*
X152681610Y-98612287D01*
X152774590Y-98544732D01*
X152847213Y-98491971D01*
X152847215Y-98491968D01*
X152847219Y-98491966D01*
X152991966Y-98347219D01*
X152991968Y-98347215D01*
X152991971Y-98347213D01*
X153067591Y-98243129D01*
X153112287Y-98181610D01*
X153205220Y-97999219D01*
X153268477Y-97804534D01*
X153300500Y-97602352D01*
X153300500Y-97397648D01*
X153270406Y-97207648D01*
X157199500Y-97207648D01*
X157199500Y-97412351D01*
X157231522Y-97614534D01*
X157294781Y-97809223D01*
X157358691Y-97934653D01*
X157385662Y-97987585D01*
X157387715Y-97991613D01*
X157508028Y-98157213D01*
X157652786Y-98301971D01*
X157807749Y-98414556D01*
X157818390Y-98422287D01*
X157934607Y-98481503D01*
X158000776Y-98515218D01*
X158000778Y-98515218D01*
X158000781Y-98515220D01*
X158105137Y-98549127D01*
X158195465Y-98578477D01*
X158296557Y-98594488D01*
X158397648Y-98610500D01*
X158397649Y-98610500D01*
X158602351Y-98610500D01*
X158602352Y-98610500D01*
X158804534Y-98578477D01*
X158999219Y-98515220D01*
X159181610Y-98422287D01*
X159285771Y-98346610D01*
X159347213Y-98301971D01*
X159347215Y-98301968D01*
X159347219Y-98301966D01*
X159491966Y-98157219D01*
X159491968Y-98157215D01*
X159491971Y-98157213D01*
X159612284Y-97991614D01*
X159612285Y-97991613D01*
X159612287Y-97991610D01*
X159675256Y-97868027D01*
X159705216Y-97809228D01*
X159705218Y-97809223D01*
X159705220Y-97809219D01*
X159768477Y-97614534D01*
X159800500Y-97412352D01*
X159800500Y-97207648D01*
X159777032Y-97059477D01*
X159768477Y-97005465D01*
X159727444Y-96879179D01*
X159705220Y-96810781D01*
X159705218Y-96810778D01*
X159705218Y-96810776D01*
X159665838Y-96733489D01*
X159612287Y-96628390D01*
X159577125Y-96579993D01*
X159508726Y-96485848D01*
X159491971Y-96462786D01*
X159446199Y-96417014D01*
X166527500Y-96417014D01*
X166527500Y-96652985D01*
X166558299Y-96886914D01*
X166619370Y-97114837D01*
X166709660Y-97332819D01*
X166709665Y-97332828D01*
X166827644Y-97537171D01*
X166827645Y-97537172D01*
X166890221Y-97618723D01*
X167726458Y-96782487D01*
X167751478Y-96842890D01*
X167822612Y-96949351D01*
X167913149Y-97039888D01*
X168019610Y-97111022D01*
X168080011Y-97136041D01*
X167243775Y-97972277D01*
X167325327Y-98034854D01*
X167325328Y-98034855D01*
X167529671Y-98152834D01*
X167529680Y-98152839D01*
X167747663Y-98243129D01*
X167747661Y-98243129D01*
X167975585Y-98304200D01*
X168209514Y-98334999D01*
X168209529Y-98335000D01*
X168445471Y-98335000D01*
X168445485Y-98334999D01*
X168679414Y-98304200D01*
X168907337Y-98243129D01*
X169125319Y-98152839D01*
X169125328Y-98152834D01*
X169329681Y-98034850D01*
X169411223Y-97972279D01*
X169411223Y-97972276D01*
X168574987Y-97136041D01*
X168635390Y-97111022D01*
X168741851Y-97039888D01*
X168832388Y-96949351D01*
X168903522Y-96842890D01*
X168928541Y-96782487D01*
X169764776Y-97618723D01*
X169764779Y-97618723D01*
X169827350Y-97537181D01*
X169945334Y-97332828D01*
X169945339Y-97332819D01*
X170035629Y-97114837D01*
X170096700Y-96886914D01*
X170127499Y-96652985D01*
X170127500Y-96652971D01*
X170127500Y-96417028D01*
X170127499Y-96417014D01*
X170096700Y-96183085D01*
X170035629Y-95955162D01*
X169945339Y-95737180D01*
X169945334Y-95737171D01*
X169827355Y-95532828D01*
X169827354Y-95532827D01*
X169764777Y-95451275D01*
X168928541Y-96287511D01*
X168903522Y-96227110D01*
X168832388Y-96120649D01*
X168741851Y-96030112D01*
X168635390Y-95958978D01*
X168574988Y-95933958D01*
X169411223Y-95097721D01*
X169329672Y-95035145D01*
X169329671Y-95035144D01*
X169125328Y-94917165D01*
X169125319Y-94917160D01*
X168907336Y-94826870D01*
X168907338Y-94826870D01*
X168679414Y-94765799D01*
X168445485Y-94735000D01*
X168209514Y-94735000D01*
X167975585Y-94765799D01*
X167747662Y-94826870D01*
X167529680Y-94917160D01*
X167529671Y-94917165D01*
X167325328Y-95035144D01*
X167325318Y-95035150D01*
X167243775Y-95097720D01*
X167243775Y-95097721D01*
X168080012Y-95933958D01*
X168019610Y-95958978D01*
X167913149Y-96030112D01*
X167822612Y-96120649D01*
X167751478Y-96227110D01*
X167726458Y-96287512D01*
X166890221Y-95451275D01*
X166890220Y-95451275D01*
X166827650Y-95532818D01*
X166827644Y-95532828D01*
X166709665Y-95737171D01*
X166709660Y-95737180D01*
X166619370Y-95955162D01*
X166558299Y-96183085D01*
X166527500Y-96417014D01*
X159446199Y-96417014D01*
X159347213Y-96318028D01*
X159181613Y-96197715D01*
X159181612Y-96197714D01*
X159181610Y-96197713D01*
X159124653Y-96168691D01*
X158999223Y-96104781D01*
X158804534Y-96041522D01*
X158629995Y-96013878D01*
X158602352Y-96009500D01*
X158397648Y-96009500D01*
X158373329Y-96013351D01*
X158195465Y-96041522D01*
X158000776Y-96104781D01*
X157818386Y-96197715D01*
X157652786Y-96318028D01*
X157508028Y-96462786D01*
X157387715Y-96628386D01*
X157294781Y-96810776D01*
X157231522Y-97005465D01*
X157199500Y-97207648D01*
X153270406Y-97207648D01*
X153268477Y-97195466D01*
X153265076Y-97185000D01*
X153230164Y-97077551D01*
X153205220Y-97000781D01*
X153205218Y-97000778D01*
X153205218Y-97000776D01*
X153148037Y-96888554D01*
X153112287Y-96818390D01*
X153104556Y-96807749D01*
X152991971Y-96652786D01*
X152847213Y-96508028D01*
X152681613Y-96387715D01*
X152681612Y-96387714D01*
X152681610Y-96387713D01*
X152611537Y-96352009D01*
X152499223Y-96294781D01*
X152304534Y-96231522D01*
X152129995Y-96203878D01*
X152102352Y-96199500D01*
X151897648Y-96199500D01*
X151857211Y-96205904D01*
X151695462Y-96231523D01*
X151695460Y-96231523D01*
X151681149Y-96236173D01*
X151611308Y-96238164D01*
X151555157Y-96205921D01*
X150582591Y-95233355D01*
X148385564Y-93036329D01*
X148385562Y-93036326D01*
X148266691Y-92917455D01*
X148266686Y-92917451D01*
X148145813Y-92847666D01*
X148145812Y-92847665D01*
X148139027Y-92843748D01*
X148129759Y-92838397D01*
X147977031Y-92797473D01*
X147818917Y-92797473D01*
X147811321Y-92797473D01*
X147811305Y-92797474D01*
X147629500Y-92797474D01*
X147562461Y-92777789D01*
X147516706Y-92724985D01*
X147505500Y-92673474D01*
X147505500Y-92482648D01*
X147473477Y-92280465D01*
X147444127Y-92190137D01*
X147410220Y-92085781D01*
X147410218Y-92085778D01*
X147410218Y-92085776D01*
X147376503Y-92019607D01*
X147317287Y-91903390D01*
X147309556Y-91892749D01*
X147196971Y-91737786D01*
X147052213Y-91593028D01*
X146886614Y-91472715D01*
X146879884Y-91469286D01*
X146793917Y-91425483D01*
X146743123Y-91377511D01*
X146726328Y-91309690D01*
X146748865Y-91243555D01*
X146793917Y-91204516D01*
X146886610Y-91157287D01*
X146985803Y-91085220D01*
X147052213Y-91036971D01*
X147052215Y-91036968D01*
X147052219Y-91036966D01*
X147196966Y-90892219D01*
X147196968Y-90892215D01*
X147196971Y-90892213D01*
X147262307Y-90802284D01*
X147317287Y-90726610D01*
X147410220Y-90544219D01*
X147473477Y-90349534D01*
X147505500Y-90147352D01*
X147505500Y-89942648D01*
X147484853Y-89812288D01*
X147473477Y-89740465D01*
X147419863Y-89575459D01*
X147410220Y-89545781D01*
X147410218Y-89545778D01*
X147410218Y-89545776D01*
X147376503Y-89479607D01*
X147317287Y-89363390D01*
X147301966Y-89342302D01*
X147196971Y-89197786D01*
X147052213Y-89053028D01*
X146886613Y-88932715D01*
X146886612Y-88932714D01*
X146886610Y-88932713D01*
X146798911Y-88888028D01*
X146704223Y-88839781D01*
X146509534Y-88776522D01*
X146334995Y-88748878D01*
X146307352Y-88744500D01*
X146102648Y-88744500D01*
X146078329Y-88748351D01*
X145900465Y-88776522D01*
X145705776Y-88839781D01*
X145523386Y-88932715D01*
X145357786Y-89053028D01*
X145213028Y-89197786D01*
X145092715Y-89363386D01*
X144999781Y-89545776D01*
X144936522Y-89740465D01*
X144904500Y-89942648D01*
X138971685Y-89942648D01*
X138957741Y-89890606D01*
X138905080Y-89799394D01*
X138900686Y-89795000D01*
X139884999Y-89795000D01*
X139884999Y-89445028D01*
X139884998Y-89445013D01*
X139874505Y-89342302D01*
X139819358Y-89175880D01*
X139819356Y-89175875D01*
X139727315Y-89026654D01*
X139603345Y-88902684D01*
X139454124Y-88810643D01*
X139454119Y-88810641D01*
X139287697Y-88755494D01*
X139287690Y-88755493D01*
X139184986Y-88745000D01*
X138835000Y-88745000D01*
X138835000Y-89729314D01*
X138830606Y-89724920D01*
X138739394Y-89672259D01*
X138637661Y-89645000D01*
X138532339Y-89645000D01*
X138430606Y-89672259D01*
X138339394Y-89724920D01*
X138335000Y-89729314D01*
X138335000Y-88745000D01*
X137985028Y-88745000D01*
X137985012Y-88745001D01*
X137882302Y-88755494D01*
X137715880Y-88810641D01*
X137715875Y-88810643D01*
X137566654Y-88902684D01*
X137442684Y-89026654D01*
X137350643Y-89175875D01*
X137350641Y-89175880D01*
X137295494Y-89342302D01*
X137295493Y-89342309D01*
X137285000Y-89445013D01*
X137285000Y-89795000D01*
X138269314Y-89795000D01*
X138264920Y-89799394D01*
X138212259Y-89890606D01*
X138185000Y-89992339D01*
X138185000Y-90097661D01*
X138212259Y-90199394D01*
X138264920Y-90290606D01*
X138269314Y-90295000D01*
X137285001Y-90295000D01*
X137285001Y-90644986D01*
X137295494Y-90747697D01*
X137350641Y-90914119D01*
X137350643Y-90914124D01*
X137442684Y-91063345D01*
X137566654Y-91187315D01*
X137715875Y-91279356D01*
X137715882Y-91279359D01*
X137798067Y-91306592D01*
X137855512Y-91346364D01*
X137882336Y-91410880D01*
X137870021Y-91479656D01*
X137831949Y-91524616D01*
X137737787Y-91593028D01*
X137737782Y-91593032D01*
X137593028Y-91737786D01*
X137472715Y-91903386D01*
X137379781Y-92085776D01*
X137316522Y-92280465D01*
X137284500Y-92482648D01*
X137284500Y-92687351D01*
X137316522Y-92889534D01*
X137379781Y-93084223D01*
X137433582Y-93189812D01*
X137467052Y-93255500D01*
X137472715Y-93266613D01*
X137593028Y-93432213D01*
X137737786Y-93576971D01*
X137892749Y-93689556D01*
X137903390Y-93697287D01*
X137994840Y-93743883D01*
X137996080Y-93744515D01*
X138046876Y-93792490D01*
X138063671Y-93860311D01*
X138041134Y-93926446D01*
X137996080Y-93965485D01*
X137903386Y-94012715D01*
X137737786Y-94133028D01*
X137593028Y-94277786D01*
X137472715Y-94443386D01*
X137379781Y-94625776D01*
X137316522Y-94820465D01*
X137284500Y-95022648D01*
X137284500Y-95227351D01*
X137316522Y-95429534D01*
X137379781Y-95624223D01*
X137443691Y-95749653D01*
X137452277Y-95766503D01*
X137472715Y-95806613D01*
X137593028Y-95972213D01*
X137737786Y-96116971D01*
X137848923Y-96197715D01*
X137903390Y-96237287D01*
X137994840Y-96283883D01*
X137996080Y-96284515D01*
X138046876Y-96332490D01*
X138063671Y-96400311D01*
X138041134Y-96466446D01*
X137996080Y-96505485D01*
X137903386Y-96552715D01*
X137737786Y-96673028D01*
X137593028Y-96817786D01*
X137472715Y-96983386D01*
X137379781Y-97165778D01*
X137352856Y-97248645D01*
X137351303Y-97250915D01*
X137351107Y-97253661D01*
X137331695Y-97279590D01*
X137313418Y-97306321D01*
X137310883Y-97307392D01*
X137309235Y-97309594D01*
X137278900Y-97320908D01*
X137249060Y-97333519D01*
X137246348Y-97333049D01*
X137243771Y-97334011D01*
X137212126Y-97327127D01*
X137180213Y-97321604D01*
X137177363Y-97319564D01*
X137175498Y-97319159D01*
X137147244Y-97298008D01*
X137136819Y-97287583D01*
X137103334Y-97226260D01*
X137100500Y-97199902D01*
X137100500Y-97079765D01*
X137120185Y-97012726D01*
X137121398Y-97010874D01*
X137162507Y-96949351D01*
X137209394Y-96879179D01*
X137269737Y-96733497D01*
X137300500Y-96578842D01*
X137300500Y-96421158D01*
X137300500Y-96421155D01*
X137300499Y-96421153D01*
X137294994Y-96393477D01*
X137269737Y-96266503D01*
X137257999Y-96238164D01*
X137209397Y-96120827D01*
X137209390Y-96120814D01*
X137121789Y-95989711D01*
X137121786Y-95989707D01*
X137010292Y-95878213D01*
X137010288Y-95878210D01*
X136879185Y-95790609D01*
X136879172Y-95790602D01*
X136733501Y-95730264D01*
X136733489Y-95730261D01*
X136578845Y-95699500D01*
X136578842Y-95699500D01*
X136421158Y-95699500D01*
X136421155Y-95699500D01*
X136266510Y-95730261D01*
X136266498Y-95730264D01*
X136120827Y-95790602D01*
X136120814Y-95790609D01*
X135989711Y-95878210D01*
X135989707Y-95878213D01*
X135878213Y-95989707D01*
X135878210Y-95989711D01*
X135790609Y-96120814D01*
X135790602Y-96120827D01*
X135730264Y-96266498D01*
X135730261Y-96266510D01*
X135699500Y-96421153D01*
X131751167Y-96421153D01*
X131769693Y-96352014D01*
X131800500Y-96118011D01*
X131800500Y-95881989D01*
X131769693Y-95647986D01*
X131708606Y-95420007D01*
X131618284Y-95201951D01*
X131618282Y-95201948D01*
X131618280Y-95201943D01*
X131521978Y-95035145D01*
X131500273Y-94997550D01*
X131356592Y-94810301D01*
X131356587Y-94810295D01*
X131189704Y-94643412D01*
X131189697Y-94643406D01*
X131002454Y-94499730D01*
X131002453Y-94499729D01*
X131002450Y-94499727D01*
X130920957Y-94452677D01*
X130798056Y-94381719D01*
X130798045Y-94381714D01*
X130579993Y-94291394D01*
X130352010Y-94230306D01*
X130118020Y-94199501D01*
X130118017Y-94199500D01*
X130118011Y-94199500D01*
X129881989Y-94199500D01*
X129881983Y-94199500D01*
X129881979Y-94199501D01*
X129647989Y-94230306D01*
X129420006Y-94291394D01*
X129201954Y-94381714D01*
X129201943Y-94381719D01*
X128997545Y-94499730D01*
X128810302Y-94643406D01*
X128810295Y-94643412D01*
X128643412Y-94810295D01*
X128643406Y-94810302D01*
X128499730Y-94997545D01*
X128381719Y-95201943D01*
X128381714Y-95201954D01*
X128291394Y-95420006D01*
X128230306Y-95647989D01*
X128199501Y-95881979D01*
X128199500Y-95881995D01*
X122600500Y-95881995D01*
X122600500Y-89820013D01*
X128200000Y-89820013D01*
X128200000Y-90670000D01*
X129399999Y-90670000D01*
X129374979Y-90730402D01*
X129350000Y-90855981D01*
X129350000Y-90984019D01*
X129374979Y-91109598D01*
X129399999Y-91170000D01*
X128200001Y-91170000D01*
X128200001Y-92019986D01*
X128210494Y-92122697D01*
X128265641Y-92289119D01*
X128265643Y-92289124D01*
X128357684Y-92438345D01*
X128481654Y-92562315D01*
X128630875Y-92654356D01*
X128630880Y-92654358D01*
X128797302Y-92709505D01*
X128797309Y-92709506D01*
X128900019Y-92719999D01*
X129749999Y-92719999D01*
X129750000Y-92719998D01*
X129750000Y-91520001D01*
X129810402Y-91545021D01*
X129935981Y-91570000D01*
X130064019Y-91570000D01*
X130189598Y-91545021D01*
X130250000Y-91520001D01*
X130250000Y-92719999D01*
X131099972Y-92719999D01*
X131099986Y-92719998D01*
X131202697Y-92709505D01*
X131369119Y-92654358D01*
X131369124Y-92654356D01*
X131518345Y-92562315D01*
X131642315Y-92438345D01*
X131734356Y-92289124D01*
X131734358Y-92289119D01*
X131789505Y-92122697D01*
X131789506Y-92122690D01*
X131799999Y-92019986D01*
X131800000Y-92019973D01*
X131800000Y-91170000D01*
X130600001Y-91170000D01*
X130625021Y-91109598D01*
X130650000Y-90984019D01*
X130650000Y-90855981D01*
X130625021Y-90730402D01*
X130600001Y-90670000D01*
X131799999Y-90670000D01*
X131799999Y-89820028D01*
X131799998Y-89820013D01*
X131789505Y-89717302D01*
X131734358Y-89550880D01*
X131734353Y-89550869D01*
X131707271Y-89506963D01*
X131707269Y-89506961D01*
X131642315Y-89401654D01*
X131518345Y-89277684D01*
X131369124Y-89185643D01*
X131369119Y-89185641D01*
X131202697Y-89130494D01*
X131202690Y-89130493D01*
X131099986Y-89120000D01*
X130250000Y-89120000D01*
X130250000Y-90319998D01*
X130189598Y-90294979D01*
X130064019Y-90270000D01*
X129935981Y-90270000D01*
X129810402Y-90294979D01*
X129750000Y-90319998D01*
X129750000Y-89120000D01*
X128900028Y-89120000D01*
X128900012Y-89120001D01*
X128797302Y-89130494D01*
X128630880Y-89185641D01*
X128630875Y-89185643D01*
X128481654Y-89277684D01*
X128357684Y-89401654D01*
X128265643Y-89550875D01*
X128265641Y-89550880D01*
X128210494Y-89717302D01*
X128210493Y-89717309D01*
X128200000Y-89820013D01*
X122600500Y-89820013D01*
X122600500Y-87017648D01*
X150699500Y-87017648D01*
X150699500Y-87222351D01*
X150731522Y-87424534D01*
X150794781Y-87619223D01*
X150887715Y-87801613D01*
X151008028Y-87967213D01*
X151152786Y-88111971D01*
X151307749Y-88224556D01*
X151318390Y-88232287D01*
X151434607Y-88291503D01*
X151500776Y-88325218D01*
X151500778Y-88325218D01*
X151500781Y-88325220D01*
X151586358Y-88353025D01*
X151675743Y-88382069D01*
X151733418Y-88421507D01*
X151760616Y-88485866D01*
X151748701Y-88554712D01*
X151701457Y-88606188D01*
X151675743Y-88617931D01*
X151500776Y-88674781D01*
X151318386Y-88767715D01*
X151152786Y-88888028D01*
X151008028Y-89032786D01*
X150887715Y-89198386D01*
X150794781Y-89380776D01*
X150731522Y-89575465D01*
X150716192Y-89672259D01*
X150699500Y-89777648D01*
X150699500Y-89982352D01*
X150703878Y-90009995D01*
X150731522Y-90184534D01*
X150794781Y-90379223D01*
X150887715Y-90561613D01*
X151008028Y-90727213D01*
X151152786Y-90871971D01*
X151271854Y-90958477D01*
X151318390Y-90992287D01*
X151434607Y-91051503D01*
X151500776Y-91085218D01*
X151500778Y-91085218D01*
X151500781Y-91085220D01*
X151575809Y-91109598D01*
X151695465Y-91148477D01*
X151751070Y-91157284D01*
X151897648Y-91180500D01*
X151897649Y-91180500D01*
X152102351Y-91180500D01*
X152102352Y-91180500D01*
X152304534Y-91148477D01*
X152499219Y-91085220D01*
X152681610Y-90992287D01*
X152789200Y-90914119D01*
X152847213Y-90871971D01*
X152847215Y-90871968D01*
X152847219Y-90871966D01*
X152991966Y-90727219D01*
X152991968Y-90727215D01*
X152991971Y-90727213D01*
X153075597Y-90612110D01*
X153112287Y-90561610D01*
X153205220Y-90379219D01*
X153268477Y-90184534D01*
X153300500Y-89982352D01*
X153300500Y-89777648D01*
X153270406Y-89587648D01*
X157199500Y-89587648D01*
X157199500Y-89792352D01*
X157200615Y-89799394D01*
X157231522Y-89994534D01*
X157294781Y-90189223D01*
X157335940Y-90270000D01*
X157379245Y-90354991D01*
X157387715Y-90371613D01*
X157508028Y-90537213D01*
X157652786Y-90681971D01*
X157807749Y-90794556D01*
X157818390Y-90802287D01*
X157923770Y-90855981D01*
X158000776Y-90895218D01*
X158000778Y-90895218D01*
X158000781Y-90895220D01*
X158058962Y-90914124D01*
X158195465Y-90958477D01*
X158296557Y-90974488D01*
X158397648Y-90990500D01*
X158397649Y-90990500D01*
X158602351Y-90990500D01*
X158602352Y-90990500D01*
X158804534Y-90958477D01*
X158999219Y-90895220D01*
X159181610Y-90802287D01*
X159285771Y-90726610D01*
X159347213Y-90681971D01*
X159347215Y-90681968D01*
X159347219Y-90681966D01*
X159491966Y-90537219D01*
X159491968Y-90537215D01*
X159491971Y-90537213D01*
X159612284Y-90371614D01*
X159612285Y-90371613D01*
X159612287Y-90371610D01*
X159620759Y-90354983D01*
X166527000Y-90354983D01*
X166527000Y-92555001D01*
X166527001Y-92555018D01*
X166537500Y-92657796D01*
X166537501Y-92657799D01*
X166592685Y-92824331D01*
X166592687Y-92824336D01*
X166607077Y-92847666D01*
X166684788Y-92973656D01*
X166808844Y-93097712D01*
X166958166Y-93189814D01*
X167124703Y-93244999D01*
X167227491Y-93255500D01*
X169427508Y-93255499D01*
X169530297Y-93244999D01*
X169696834Y-93189814D01*
X169846156Y-93097712D01*
X169970212Y-92973656D01*
X170062314Y-92824334D01*
X170117499Y-92657797D01*
X170128000Y-92555009D01*
X170127999Y-90354992D01*
X170127441Y-90349534D01*
X170117499Y-90252203D01*
X170117498Y-90252200D01*
X170096628Y-90189219D01*
X170062314Y-90085666D01*
X169970212Y-89936344D01*
X169846156Y-89812288D01*
X169696834Y-89720186D01*
X169530297Y-89665001D01*
X169530295Y-89665000D01*
X169427510Y-89654500D01*
X167227498Y-89654500D01*
X167227481Y-89654501D01*
X167124703Y-89665000D01*
X167124700Y-89665001D01*
X166958168Y-89720185D01*
X166958163Y-89720187D01*
X166808842Y-89812289D01*
X166684789Y-89936342D01*
X166592687Y-90085663D01*
X166592685Y-90085668D01*
X166572245Y-90147352D01*
X166537501Y-90252203D01*
X166537501Y-90252204D01*
X166537500Y-90252204D01*
X166527000Y-90354983D01*
X159620759Y-90354983D01*
X159705220Y-90189219D01*
X159768477Y-89994534D01*
X159800500Y-89792352D01*
X159800500Y-89587648D01*
X159777911Y-89445028D01*
X159768477Y-89385465D01*
X159739127Y-89295137D01*
X159705220Y-89190781D01*
X159705218Y-89190778D01*
X159705218Y-89190776D01*
X159624717Y-89032786D01*
X159612287Y-89008390D01*
X159604556Y-88997749D01*
X159491971Y-88842786D01*
X159347213Y-88698028D01*
X159181613Y-88577715D01*
X159181612Y-88577714D01*
X159181610Y-88577713D01*
X159124653Y-88548691D01*
X158999223Y-88484781D01*
X158804534Y-88421522D01*
X158629576Y-88393812D01*
X158602352Y-88389500D01*
X158397648Y-88389500D01*
X158373329Y-88393351D01*
X158195465Y-88421522D01*
X158000776Y-88484781D01*
X157818386Y-88577715D01*
X157652786Y-88698028D01*
X157508028Y-88842786D01*
X157387715Y-89008386D01*
X157294781Y-89190776D01*
X157231522Y-89385465D01*
X157201431Y-89575459D01*
X157199500Y-89587648D01*
X153270406Y-89587648D01*
X153268477Y-89575466D01*
X153205220Y-89380781D01*
X153205218Y-89380778D01*
X153205218Y-89380776D01*
X153152689Y-89277684D01*
X153112287Y-89198390D01*
X153095929Y-89175875D01*
X152991971Y-89032786D01*
X152847213Y-88888028D01*
X152681613Y-88767715D01*
X152681612Y-88767714D01*
X152681610Y-88767713D01*
X152624653Y-88738691D01*
X152499223Y-88674781D01*
X152324256Y-88617931D01*
X152266581Y-88578493D01*
X152239383Y-88514134D01*
X152251298Y-88445288D01*
X152298542Y-88393812D01*
X152324256Y-88382069D01*
X152339565Y-88377094D01*
X152499219Y-88325220D01*
X152681610Y-88232287D01*
X152774590Y-88164732D01*
X152847213Y-88111971D01*
X152847215Y-88111968D01*
X152847219Y-88111966D01*
X152991966Y-87967219D01*
X152991968Y-87967215D01*
X152991971Y-87967213D01*
X153044732Y-87894590D01*
X153112287Y-87801610D01*
X153205220Y-87619219D01*
X153268477Y-87424534D01*
X153300500Y-87222352D01*
X153300500Y-87017648D01*
X153268477Y-86815466D01*
X153205220Y-86620781D01*
X153205218Y-86620778D01*
X153205218Y-86620776D01*
X153171503Y-86554607D01*
X153112287Y-86438390D01*
X153104556Y-86427749D01*
X152991971Y-86272786D01*
X152847213Y-86128028D01*
X152681613Y-86007715D01*
X152681612Y-86007714D01*
X152681610Y-86007713D01*
X152624653Y-85978691D01*
X152499223Y-85914781D01*
X152304534Y-85851522D01*
X152129995Y-85823878D01*
X152102352Y-85819500D01*
X151897648Y-85819500D01*
X151873329Y-85823351D01*
X151695465Y-85851522D01*
X151500776Y-85914781D01*
X151318386Y-86007715D01*
X151152786Y-86128028D01*
X151008028Y-86272786D01*
X150887715Y-86438386D01*
X150794781Y-86620776D01*
X150731522Y-86815465D01*
X150699500Y-87017648D01*
X122600500Y-87017648D01*
X122600500Y-82897682D01*
X138200000Y-82897682D01*
X138200000Y-83102317D01*
X138232009Y-83304417D01*
X138295244Y-83499031D01*
X138388141Y-83681350D01*
X138388147Y-83681359D01*
X138420523Y-83725921D01*
X138420524Y-83725922D01*
X139100000Y-83046446D01*
X139100000Y-83052661D01*
X139127259Y-83154394D01*
X139179920Y-83245606D01*
X139254394Y-83320080D01*
X139345606Y-83372741D01*
X139447339Y-83400000D01*
X139453553Y-83400000D01*
X138774076Y-84079474D01*
X138818650Y-84111859D01*
X139000968Y-84204755D01*
X139195582Y-84267990D01*
X139397683Y-84300000D01*
X139602317Y-84300000D01*
X139804417Y-84267990D01*
X139999031Y-84204755D01*
X140181349Y-84111859D01*
X140225921Y-84079474D01*
X139546447Y-83400000D01*
X139552661Y-83400000D01*
X139654394Y-83372741D01*
X139745606Y-83320080D01*
X139820080Y-83245606D01*
X139872741Y-83154394D01*
X139900000Y-83052661D01*
X139900000Y-83046448D01*
X140579474Y-83725922D01*
X140579474Y-83725921D01*
X140611859Y-83681349D01*
X140704755Y-83499031D01*
X140767990Y-83304417D01*
X140800000Y-83102317D01*
X140800000Y-82897682D01*
X140799995Y-82897648D01*
X143199500Y-82897648D01*
X143199500Y-83102351D01*
X143231522Y-83304534D01*
X143294781Y-83499223D01*
X143358691Y-83624653D01*
X143387585Y-83681359D01*
X143387715Y-83681613D01*
X143508028Y-83847213D01*
X143652786Y-83991971D01*
X143773226Y-84079474D01*
X143818390Y-84112287D01*
X143934607Y-84171503D01*
X144000776Y-84205218D01*
X144000778Y-84205218D01*
X144000781Y-84205220D01*
X144105137Y-84239127D01*
X144195465Y-84268477D01*
X144296557Y-84284488D01*
X144397648Y-84300500D01*
X144397649Y-84300500D01*
X144602351Y-84300500D01*
X144602352Y-84300500D01*
X144804534Y-84268477D01*
X144999219Y-84205220D01*
X145181610Y-84112287D01*
X145274590Y-84044732D01*
X145347213Y-83991971D01*
X145347215Y-83991968D01*
X145347219Y-83991966D01*
X145491966Y-83847219D01*
X145491968Y-83847215D01*
X145491971Y-83847213D01*
X145544732Y-83774590D01*
X145612287Y-83681610D01*
X145705220Y-83499219D01*
X145768477Y-83304534D01*
X145800500Y-83102352D01*
X145800500Y-82897648D01*
X145792257Y-82845606D01*
X145768477Y-82695465D01*
X145737458Y-82600000D01*
X145705220Y-82500781D01*
X145705218Y-82500778D01*
X145705218Y-82500776D01*
X145612419Y-82318650D01*
X145612287Y-82318390D01*
X145580092Y-82274077D01*
X145491971Y-82152786D01*
X145347213Y-82008028D01*
X145181613Y-81887715D01*
X145181612Y-81887714D01*
X145181610Y-81887713D01*
X145124653Y-81858691D01*
X144999223Y-81794781D01*
X144804534Y-81731522D01*
X144629995Y-81703878D01*
X144602352Y-81699500D01*
X144397648Y-81699500D01*
X144373329Y-81703351D01*
X144195465Y-81731522D01*
X144000776Y-81794781D01*
X143818386Y-81887715D01*
X143652786Y-82008028D01*
X143508028Y-82152786D01*
X143387715Y-82318386D01*
X143294781Y-82500776D01*
X143231522Y-82695465D01*
X143199500Y-82897648D01*
X140799995Y-82897648D01*
X140767990Y-82695582D01*
X140704755Y-82500968D01*
X140611859Y-82318650D01*
X140579474Y-82274077D01*
X140579474Y-82274076D01*
X139900000Y-82953551D01*
X139900000Y-82947339D01*
X139872741Y-82845606D01*
X139820080Y-82754394D01*
X139745606Y-82679920D01*
X139654394Y-82627259D01*
X139552661Y-82600000D01*
X139546446Y-82600000D01*
X140225922Y-81920524D01*
X140225921Y-81920523D01*
X140181359Y-81888147D01*
X140181350Y-81888141D01*
X139999031Y-81795244D01*
X139804417Y-81732009D01*
X139602317Y-81700000D01*
X139397683Y-81700000D01*
X139195582Y-81732009D01*
X139000968Y-81795244D01*
X138818644Y-81888143D01*
X138774077Y-81920523D01*
X138774077Y-81920524D01*
X139453554Y-82600000D01*
X139447339Y-82600000D01*
X139345606Y-82627259D01*
X139254394Y-82679920D01*
X139179920Y-82754394D01*
X139127259Y-82845606D01*
X139100000Y-82947339D01*
X139100000Y-82953553D01*
X138420524Y-82274077D01*
X138420523Y-82274077D01*
X138388143Y-82318644D01*
X138295244Y-82500968D01*
X138232009Y-82695582D01*
X138200000Y-82897682D01*
X122600500Y-82897682D01*
X122600500Y-79397648D01*
X150699500Y-79397648D01*
X150699500Y-79602351D01*
X150731522Y-79804534D01*
X150794781Y-79999223D01*
X150887715Y-80181613D01*
X151008028Y-80347213D01*
X151152786Y-80491971D01*
X151307749Y-80604556D01*
X151318390Y-80612287D01*
X151434607Y-80671503D01*
X151500776Y-80705218D01*
X151500778Y-80705218D01*
X151500781Y-80705220D01*
X151605137Y-80739127D01*
X151695465Y-80768477D01*
X151796557Y-80784488D01*
X151897648Y-80800500D01*
X151897649Y-80800500D01*
X152102351Y-80800500D01*
X152102352Y-80800500D01*
X152304534Y-80768477D01*
X152499219Y-80705220D01*
X152681610Y-80612287D01*
X152774590Y-80544732D01*
X152847213Y-80491971D01*
X152847215Y-80491968D01*
X152847219Y-80491966D01*
X152991966Y-80347219D01*
X152991968Y-80347215D01*
X152991971Y-80347213D01*
X153044732Y-80274590D01*
X153112287Y-80181610D01*
X153205220Y-79999219D01*
X153268477Y-79804534D01*
X153300500Y-79602352D01*
X153300500Y-79397648D01*
X153268477Y-79195466D01*
X153205220Y-79000781D01*
X153205218Y-79000778D01*
X153205218Y-79000776D01*
X153171503Y-78934607D01*
X153112287Y-78818390D01*
X153104556Y-78807749D01*
X152991971Y-78652786D01*
X152847213Y-78508028D01*
X152681613Y-78387715D01*
X152681612Y-78387714D01*
X152681610Y-78387713D01*
X152624653Y-78358691D01*
X152499223Y-78294781D01*
X152304534Y-78231522D01*
X152129995Y-78203878D01*
X152102352Y-78199500D01*
X151897648Y-78199500D01*
X151873329Y-78203351D01*
X151695465Y-78231522D01*
X151500776Y-78294781D01*
X151318386Y-78387715D01*
X151152786Y-78508028D01*
X151008028Y-78652786D01*
X150887715Y-78818386D01*
X150794781Y-79000776D01*
X150731522Y-79195465D01*
X150699500Y-79397648D01*
X122600500Y-79397648D01*
X122600500Y-77724500D01*
X122620185Y-77657461D01*
X122672989Y-77611706D01*
X122724500Y-77600500D01*
X176275500Y-77600500D01*
X176342539Y-77620185D01*
G37*
%TD.AperFunction*%
%TD*%
M02*
