%TF.GenerationSoftware,KiCad,Pcbnew,10.0.3*%
%TF.CreationDate,2026-05-17T23:10:35+05:30*%
%TF.ProjectId,Astable_Multivibrator,41737461-626c-4655-9f4d-756c74697669,rev?*%
%TF.SameCoordinates,Original*%
%TF.FileFunction,Legend,Top*%
%TF.FilePolarity,Positive*%
%FSLAX46Y46*%
G04 Gerber Fmt 4.6, Leading zero omitted, Abs format (unit mm)*
G04 Created by KiCad (PCBNEW 10.0.3) date 2026-05-17 23:10:35*
%MOMM*%
%LPD*%
G01*
G04 APERTURE LIST*
%ADD10C,0.150000*%
%ADD11C,0.120000*%
G04 APERTURE END LIST*
D10*
X156756905Y-100494819D02*
X156756905Y-99494819D01*
X156756905Y-99494819D02*
X156995000Y-99494819D01*
X156995000Y-99494819D02*
X157137857Y-99542438D01*
X157137857Y-99542438D02*
X157233095Y-99637676D01*
X157233095Y-99637676D02*
X157280714Y-99732914D01*
X157280714Y-99732914D02*
X157328333Y-99923390D01*
X157328333Y-99923390D02*
X157328333Y-100066247D01*
X157328333Y-100066247D02*
X157280714Y-100256723D01*
X157280714Y-100256723D02*
X157233095Y-100351961D01*
X157233095Y-100351961D02*
X157137857Y-100447200D01*
X157137857Y-100447200D02*
X156995000Y-100494819D01*
X156995000Y-100494819D02*
X156756905Y-100494819D01*
X158280714Y-100494819D02*
X157709286Y-100494819D01*
X157995000Y-100494819D02*
X157995000Y-99494819D01*
X157995000Y-99494819D02*
X157899762Y-99637676D01*
X157899762Y-99637676D02*
X157804524Y-99732914D01*
X157804524Y-99732914D02*
X157709286Y-99780533D01*
X150084819Y-83476666D02*
X149608628Y-83809999D01*
X150084819Y-84048094D02*
X149084819Y-84048094D01*
X149084819Y-84048094D02*
X149084819Y-83667142D01*
X149084819Y-83667142D02*
X149132438Y-83571904D01*
X149132438Y-83571904D02*
X149180057Y-83524285D01*
X149180057Y-83524285D02*
X149275295Y-83476666D01*
X149275295Y-83476666D02*
X149418152Y-83476666D01*
X149418152Y-83476666D02*
X149513390Y-83524285D01*
X149513390Y-83524285D02*
X149561009Y-83571904D01*
X149561009Y-83571904D02*
X149608628Y-83667142D01*
X149608628Y-83667142D02*
X149608628Y-84048094D01*
X149180057Y-83095713D02*
X149132438Y-83048094D01*
X149132438Y-83048094D02*
X149084819Y-82952856D01*
X149084819Y-82952856D02*
X149084819Y-82714761D01*
X149084819Y-82714761D02*
X149132438Y-82619523D01*
X149132438Y-82619523D02*
X149180057Y-82571904D01*
X149180057Y-82571904D02*
X149275295Y-82524285D01*
X149275295Y-82524285D02*
X149370533Y-82524285D01*
X149370533Y-82524285D02*
X149513390Y-82571904D01*
X149513390Y-82571904D02*
X150084819Y-83143332D01*
X150084819Y-83143332D02*
X150084819Y-82524285D01*
X161324819Y-93666666D02*
X160848628Y-93999999D01*
X161324819Y-94238094D02*
X160324819Y-94238094D01*
X160324819Y-94238094D02*
X160324819Y-93857142D01*
X160324819Y-93857142D02*
X160372438Y-93761904D01*
X160372438Y-93761904D02*
X160420057Y-93714285D01*
X160420057Y-93714285D02*
X160515295Y-93666666D01*
X160515295Y-93666666D02*
X160658152Y-93666666D01*
X160658152Y-93666666D02*
X160753390Y-93714285D01*
X160753390Y-93714285D02*
X160801009Y-93761904D01*
X160801009Y-93761904D02*
X160848628Y-93857142D01*
X160848628Y-93857142D02*
X160848628Y-94238094D01*
X160324819Y-93333332D02*
X160324819Y-92714285D01*
X160324819Y-92714285D02*
X160705771Y-93047618D01*
X160705771Y-93047618D02*
X160705771Y-92904761D01*
X160705771Y-92904761D02*
X160753390Y-92809523D01*
X160753390Y-92809523D02*
X160801009Y-92761904D01*
X160801009Y-92761904D02*
X160896247Y-92714285D01*
X160896247Y-92714285D02*
X161134342Y-92714285D01*
X161134342Y-92714285D02*
X161229580Y-92761904D01*
X161229580Y-92761904D02*
X161277200Y-92809523D01*
X161277200Y-92809523D02*
X161324819Y-92904761D01*
X161324819Y-92904761D02*
X161324819Y-93190475D01*
X161324819Y-93190475D02*
X161277200Y-93285713D01*
X161277200Y-93285713D02*
X161229580Y-93333332D01*
X154824819Y-93856666D02*
X154348628Y-94189999D01*
X154824819Y-94428094D02*
X153824819Y-94428094D01*
X153824819Y-94428094D02*
X153824819Y-94047142D01*
X153824819Y-94047142D02*
X153872438Y-93951904D01*
X153872438Y-93951904D02*
X153920057Y-93904285D01*
X153920057Y-93904285D02*
X154015295Y-93856666D01*
X154015295Y-93856666D02*
X154158152Y-93856666D01*
X154158152Y-93856666D02*
X154253390Y-93904285D01*
X154253390Y-93904285D02*
X154301009Y-93951904D01*
X154301009Y-93951904D02*
X154348628Y-94047142D01*
X154348628Y-94047142D02*
X154348628Y-94428094D01*
X154824819Y-92904285D02*
X154824819Y-93475713D01*
X154824819Y-93189999D02*
X153824819Y-93189999D01*
X153824819Y-93189999D02*
X153967676Y-93285237D01*
X153967676Y-93285237D02*
X154062914Y-93380475D01*
X154062914Y-93380475D02*
X154110533Y-93475713D01*
X174102319Y-94328333D02*
X174816604Y-94328333D01*
X174816604Y-94328333D02*
X174959461Y-94375952D01*
X174959461Y-94375952D02*
X175054700Y-94471190D01*
X175054700Y-94471190D02*
X175102319Y-94614047D01*
X175102319Y-94614047D02*
X175102319Y-94709285D01*
X174197557Y-93899761D02*
X174149938Y-93852142D01*
X174149938Y-93852142D02*
X174102319Y-93756904D01*
X174102319Y-93756904D02*
X174102319Y-93518809D01*
X174102319Y-93518809D02*
X174149938Y-93423571D01*
X174149938Y-93423571D02*
X174197557Y-93375952D01*
X174197557Y-93375952D02*
X174292795Y-93328333D01*
X174292795Y-93328333D02*
X174388033Y-93328333D01*
X174388033Y-93328333D02*
X174530890Y-93375952D01*
X174530890Y-93375952D02*
X175102319Y-93947380D01*
X175102319Y-93947380D02*
X175102319Y-93328333D01*
X135774819Y-93793333D02*
X136489104Y-93793333D01*
X136489104Y-93793333D02*
X136631961Y-93840952D01*
X136631961Y-93840952D02*
X136727200Y-93936190D01*
X136727200Y-93936190D02*
X136774819Y-94079047D01*
X136774819Y-94079047D02*
X136774819Y-94174285D01*
X136774819Y-92793333D02*
X136774819Y-93364761D01*
X136774819Y-93079047D02*
X135774819Y-93079047D01*
X135774819Y-93079047D02*
X135917676Y-93174285D01*
X135917676Y-93174285D02*
X136012914Y-93269523D01*
X136012914Y-93269523D02*
X136060533Y-93364761D01*
X141833333Y-80859580D02*
X141785714Y-80907200D01*
X141785714Y-80907200D02*
X141642857Y-80954819D01*
X141642857Y-80954819D02*
X141547619Y-80954819D01*
X141547619Y-80954819D02*
X141404762Y-80907200D01*
X141404762Y-80907200D02*
X141309524Y-80811961D01*
X141309524Y-80811961D02*
X141261905Y-80716723D01*
X141261905Y-80716723D02*
X141214286Y-80526247D01*
X141214286Y-80526247D02*
X141214286Y-80383390D01*
X141214286Y-80383390D02*
X141261905Y-80192914D01*
X141261905Y-80192914D02*
X141309524Y-80097676D01*
X141309524Y-80097676D02*
X141404762Y-80002438D01*
X141404762Y-80002438D02*
X141547619Y-79954819D01*
X141547619Y-79954819D02*
X141642857Y-79954819D01*
X141642857Y-79954819D02*
X141785714Y-80002438D01*
X141785714Y-80002438D02*
X141833333Y-80050057D01*
X142214286Y-80050057D02*
X142261905Y-80002438D01*
X142261905Y-80002438D02*
X142357143Y-79954819D01*
X142357143Y-79954819D02*
X142595238Y-79954819D01*
X142595238Y-79954819D02*
X142690476Y-80002438D01*
X142690476Y-80002438D02*
X142738095Y-80050057D01*
X142738095Y-80050057D02*
X142785714Y-80145295D01*
X142785714Y-80145295D02*
X142785714Y-80240533D01*
X142785714Y-80240533D02*
X142738095Y-80383390D01*
X142738095Y-80383390D02*
X142166667Y-80954819D01*
X142166667Y-80954819D02*
X142785714Y-80954819D01*
X141378221Y-100609580D02*
X141330602Y-100657200D01*
X141330602Y-100657200D02*
X141187745Y-100704819D01*
X141187745Y-100704819D02*
X141092507Y-100704819D01*
X141092507Y-100704819D02*
X140949650Y-100657200D01*
X140949650Y-100657200D02*
X140854412Y-100561961D01*
X140854412Y-100561961D02*
X140806793Y-100466723D01*
X140806793Y-100466723D02*
X140759174Y-100276247D01*
X140759174Y-100276247D02*
X140759174Y-100133390D01*
X140759174Y-100133390D02*
X140806793Y-99942914D01*
X140806793Y-99942914D02*
X140854412Y-99847676D01*
X140854412Y-99847676D02*
X140949650Y-99752438D01*
X140949650Y-99752438D02*
X141092507Y-99704819D01*
X141092507Y-99704819D02*
X141187745Y-99704819D01*
X141187745Y-99704819D02*
X141330602Y-99752438D01*
X141330602Y-99752438D02*
X141378221Y-99800057D01*
X142330602Y-100704819D02*
X141759174Y-100704819D01*
X142044888Y-100704819D02*
X142044888Y-99704819D01*
X142044888Y-99704819D02*
X141949650Y-99847676D01*
X141949650Y-99847676D02*
X141854412Y-99942914D01*
X141854412Y-99942914D02*
X141759174Y-99990533D01*
X141633095Y-87169819D02*
X141633095Y-87979342D01*
X141633095Y-87979342D02*
X141680714Y-88074580D01*
X141680714Y-88074580D02*
X141728333Y-88122200D01*
X141728333Y-88122200D02*
X141823571Y-88169819D01*
X141823571Y-88169819D02*
X142014047Y-88169819D01*
X142014047Y-88169819D02*
X142109285Y-88122200D01*
X142109285Y-88122200D02*
X142156904Y-88074580D01*
X142156904Y-88074580D02*
X142204523Y-87979342D01*
X142204523Y-87979342D02*
X142204523Y-87169819D01*
X143204523Y-88169819D02*
X142633095Y-88169819D01*
X142918809Y-88169819D02*
X142918809Y-87169819D01*
X142918809Y-87169819D02*
X142823571Y-87312676D01*
X142823571Y-87312676D02*
X142728333Y-87407914D01*
X142728333Y-87407914D02*
X142633095Y-87455533D01*
%TO.C,D1*%
D11*
X159995000Y-104000000D02*
G75*
G02*
X154995000Y-104000000I-2500000J0D01*
G01*
X154995000Y-104000000D02*
G75*
G02*
X159995000Y-104000000I2500000J0D01*
G01*
X160485000Y-104000000D02*
G75*
G02*
X154935000Y-105544830I-2990000J0D01*
G01*
X154935000Y-102455170D02*
G75*
G02*
X160485000Y-104000000I2560000J-1544830D01*
G01*
X154935000Y-102455000D02*
X154935000Y-105545000D01*
%TO.C,R2*%
X153370000Y-80040000D02*
X153040000Y-80040000D01*
X150630000Y-80040000D02*
X150960000Y-80040000D01*
X153370000Y-86580000D02*
X153370000Y-80040000D01*
X153040000Y-86580000D02*
X153370000Y-86580000D01*
X150960000Y-86580000D02*
X150630000Y-86580000D01*
X150630000Y-86580000D02*
X150630000Y-80040000D01*
%TO.C,R3*%
X159870000Y-90230000D02*
X159870000Y-96770000D01*
X159540000Y-90230000D02*
X159870000Y-90230000D01*
X157460000Y-90230000D02*
X157130000Y-90230000D01*
X157130000Y-90230000D02*
X157130000Y-96770000D01*
X159870000Y-96770000D02*
X159540000Y-96770000D01*
X157130000Y-96770000D02*
X157460000Y-96770000D01*
%TO.C,R1*%
X153370000Y-90420000D02*
X153370000Y-96960000D01*
X153040000Y-90420000D02*
X153370000Y-90420000D01*
X150960000Y-90420000D02*
X150630000Y-90420000D01*
X150630000Y-90420000D02*
X150630000Y-96960000D01*
X153370000Y-96960000D02*
X153040000Y-96960000D01*
X150630000Y-96960000D02*
X150960000Y-96960000D01*
%TO.C,J2*%
X173647500Y-88795000D02*
X173647500Y-99195000D01*
X170627500Y-88795000D02*
X170627500Y-99195000D01*
X165727500Y-88795000D02*
X165727500Y-99195000D01*
X164227500Y-88795000D02*
X164227500Y-99195000D01*
X163607500Y-88795000D02*
X173647500Y-88795000D01*
X163607500Y-91155000D02*
X163607500Y-88795000D01*
X173647500Y-99195000D02*
X163607500Y-99195000D01*
X163607500Y-99195000D02*
X163607500Y-91755000D01*
X163607500Y-91455000D02*
X162997500Y-91895000D01*
X162997500Y-91015000D01*
X163607500Y-91455000D01*
G36*
X163607500Y-91455000D02*
G01*
X162997500Y-91895000D01*
X162997500Y-91015000D01*
X163607500Y-91455000D01*
G37*
%TO.C,J1*%
X135320000Y-88260000D02*
X135320000Y-98660000D01*
X132300000Y-88260000D02*
X132300000Y-98660000D01*
X127400000Y-88260000D02*
X127400000Y-98660000D01*
X125900000Y-88260000D02*
X125900000Y-98660000D01*
X125280000Y-88260000D02*
X135320000Y-88260000D01*
X125280000Y-90620000D02*
X125280000Y-88260000D01*
X135320000Y-98660000D02*
X125280000Y-98660000D01*
X125280000Y-98660000D02*
X125280000Y-91220000D01*
X125280000Y-90920000D02*
X124670000Y-91360000D01*
X124670000Y-90480000D01*
X125280000Y-90920000D01*
G36*
X125280000Y-90920000D02*
G01*
X124670000Y-91360000D01*
X124670000Y-90480000D01*
X125280000Y-90920000D01*
G37*
%TO.C,C2*%
X139380000Y-81630000D02*
X144620000Y-81630000D01*
X139380000Y-81967000D02*
X139380000Y-81630000D01*
X139380000Y-84370000D02*
X139380000Y-84033000D01*
X144620000Y-81630000D02*
X144620000Y-81967000D01*
X144620000Y-84033000D02*
X144620000Y-84370000D01*
X144620000Y-84370000D02*
X139380000Y-84370000D01*
%TO.C,C1*%
X138740113Y-102525000D02*
X139240113Y-102525000D01*
X138990113Y-102275000D02*
X138990113Y-102775000D01*
X141544888Y-101420000D02*
X141544888Y-102960000D01*
X141544888Y-105040000D02*
X141544888Y-106580000D01*
X141584888Y-101420000D02*
X141584888Y-102960000D01*
X141584888Y-105040000D02*
X141584888Y-106580000D01*
X141624888Y-101421000D02*
X141624888Y-102960000D01*
X141624888Y-105040000D02*
X141624888Y-106579000D01*
X141664888Y-101423000D02*
X141664888Y-102960000D01*
X141664888Y-105040000D02*
X141664888Y-106577000D01*
X141704888Y-101425000D02*
X141704888Y-102960000D01*
X141704888Y-105040000D02*
X141704888Y-106575000D01*
X141744888Y-101428000D02*
X141744888Y-102960000D01*
X141744888Y-105040000D02*
X141744888Y-106572000D01*
X141784888Y-101431000D02*
X141784888Y-102960000D01*
X141784888Y-105040000D02*
X141784888Y-106569000D01*
X141824888Y-101435000D02*
X141824888Y-102960000D01*
X141824888Y-105040000D02*
X141824888Y-106565000D01*
X141864888Y-101440000D02*
X141864888Y-102960000D01*
X141864888Y-105040000D02*
X141864888Y-106560000D01*
X141904888Y-101445000D02*
X141904888Y-102960000D01*
X141904888Y-105040000D02*
X141904888Y-106555000D01*
X141944888Y-101451000D02*
X141944888Y-102960000D01*
X141944888Y-105040000D02*
X141944888Y-106549000D01*
X141984888Y-101457000D02*
X141984888Y-102960000D01*
X141984888Y-105040000D02*
X141984888Y-106543000D01*
X142024888Y-101464000D02*
X142024888Y-102960000D01*
X142024888Y-105040000D02*
X142024888Y-106536000D01*
X142064888Y-101472000D02*
X142064888Y-102960000D01*
X142064888Y-105040000D02*
X142064888Y-106528000D01*
X142104888Y-101481000D02*
X142104888Y-102960000D01*
X142104888Y-105040000D02*
X142104888Y-106519000D01*
X142144888Y-101490000D02*
X142144888Y-102960000D01*
X142144888Y-105040000D02*
X142144888Y-106510000D01*
X142184888Y-101499000D02*
X142184888Y-102960000D01*
X142184888Y-105040000D02*
X142184888Y-106501000D01*
X142224888Y-101510000D02*
X142224888Y-102960000D01*
X142224888Y-105040000D02*
X142224888Y-106490000D01*
X142264888Y-101521000D02*
X142264888Y-102960000D01*
X142264888Y-105040000D02*
X142264888Y-106479000D01*
X142304888Y-101533000D02*
X142304888Y-102960000D01*
X142304888Y-105040000D02*
X142304888Y-106467000D01*
X142344888Y-101545000D02*
X142344888Y-102960000D01*
X142344888Y-105040000D02*
X142344888Y-106455000D01*
X142384888Y-101558000D02*
X142384888Y-102960000D01*
X142384888Y-105040000D02*
X142384888Y-106442000D01*
X142424888Y-101572000D02*
X142424888Y-102960000D01*
X142424888Y-105040000D02*
X142424888Y-106428000D01*
X142464888Y-101587000D02*
X142464888Y-102960000D01*
X142464888Y-105040000D02*
X142464888Y-106413000D01*
X142504888Y-101602000D02*
X142504888Y-102960000D01*
X142504888Y-105040000D02*
X142504888Y-106398000D01*
X142544888Y-101618000D02*
X142544888Y-102960000D01*
X142544888Y-105040000D02*
X142544888Y-106382000D01*
X142584888Y-101635000D02*
X142584888Y-102960000D01*
X142584888Y-105040000D02*
X142584888Y-106365000D01*
X142624888Y-101653000D02*
X142624888Y-102960000D01*
X142624888Y-105040000D02*
X142624888Y-106347000D01*
X142664888Y-101671000D02*
X142664888Y-102960000D01*
X142664888Y-105040000D02*
X142664888Y-106329000D01*
X142704888Y-101691000D02*
X142704888Y-102960000D01*
X142704888Y-105040000D02*
X142704888Y-106309000D01*
X142744888Y-101711000D02*
X142744888Y-102960000D01*
X142744888Y-105040000D02*
X142744888Y-106289000D01*
X142784888Y-101732000D02*
X142784888Y-102960000D01*
X142784888Y-105040000D02*
X142784888Y-106268000D01*
X142824888Y-101754000D02*
X142824888Y-102960000D01*
X142824888Y-105040000D02*
X142824888Y-106246000D01*
X142864888Y-101777000D02*
X142864888Y-102960000D01*
X142864888Y-105040000D02*
X142864888Y-106223000D01*
X142904888Y-101801000D02*
X142904888Y-102960000D01*
X142904888Y-105040000D02*
X142904888Y-106199000D01*
X142944888Y-101825000D02*
X142944888Y-102960000D01*
X142944888Y-105040000D02*
X142944888Y-106175000D01*
X142984888Y-101851000D02*
X142984888Y-102960000D01*
X142984888Y-105040000D02*
X142984888Y-106149000D01*
X143024888Y-101878000D02*
X143024888Y-102960000D01*
X143024888Y-105040000D02*
X143024888Y-106122000D01*
X143064888Y-101906000D02*
X143064888Y-102960000D01*
X143064888Y-105040000D02*
X143064888Y-106094000D01*
X143104888Y-101935000D02*
X143104888Y-102960000D01*
X143104888Y-105040000D02*
X143104888Y-106065000D01*
X143144888Y-101965000D02*
X143144888Y-102960000D01*
X143144888Y-105040000D02*
X143144888Y-106035000D01*
X143184888Y-101997000D02*
X143184888Y-102960000D01*
X143184888Y-105040000D02*
X143184888Y-106003000D01*
X143224888Y-102030000D02*
X143224888Y-102960000D01*
X143224888Y-105040000D02*
X143224888Y-105970000D01*
X143264888Y-102064000D02*
X143264888Y-102960000D01*
X143264888Y-105040000D02*
X143264888Y-105936000D01*
X143304888Y-102099000D02*
X143304888Y-102960000D01*
X143304888Y-105040000D02*
X143304888Y-105901000D01*
X143344888Y-102136000D02*
X143344888Y-102960000D01*
X143344888Y-105040000D02*
X143344888Y-105864000D01*
X143384888Y-102175000D02*
X143384888Y-102960000D01*
X143384888Y-105040000D02*
X143384888Y-105825000D01*
X143424888Y-102215000D02*
X143424888Y-102960000D01*
X143424888Y-105040000D02*
X143424888Y-105785000D01*
X143464888Y-102257000D02*
X143464888Y-102960000D01*
X143464888Y-105040000D02*
X143464888Y-105743000D01*
X143504888Y-102301000D02*
X143504888Y-102960000D01*
X143504888Y-105040000D02*
X143504888Y-105699000D01*
X143544888Y-102348000D02*
X143544888Y-102960000D01*
X143544888Y-105040000D02*
X143544888Y-105652000D01*
X143584888Y-102396000D02*
X143584888Y-105604000D01*
X143624888Y-102447000D02*
X143624888Y-105553000D01*
X143664888Y-102501000D02*
X143664888Y-105499000D01*
X143704888Y-102557000D02*
X143704888Y-105443000D01*
X143744888Y-102617000D02*
X143744888Y-105383000D01*
X143784888Y-102681000D02*
X143784888Y-105319000D01*
X143824888Y-102749000D02*
X143824888Y-105251000D01*
X143864888Y-102823000D02*
X143864888Y-105177000D01*
X143904888Y-102902000D02*
X143904888Y-105098000D01*
X143944888Y-102989000D02*
X143944888Y-105011000D01*
X143984888Y-103086000D02*
X143984888Y-104914000D01*
X144024888Y-103195000D02*
X144024888Y-104805000D01*
X144064888Y-103323000D02*
X144064888Y-104677000D01*
X144104888Y-103483000D02*
X144104888Y-104517000D01*
X144144888Y-103717000D02*
X144144888Y-104283000D01*
X144164888Y-104000000D02*
G75*
G02*
X138924888Y-104000000I-2620000J0D01*
G01*
X138924888Y-104000000D02*
G75*
G02*
X144164888Y-104000000I2620000J0D01*
G01*
%TO.C,U1*%
X139745000Y-88715000D02*
X139745000Y-98995000D01*
X139745000Y-98995000D02*
X145045000Y-98995000D01*
X141395000Y-88715000D02*
X139745000Y-88715000D01*
X145045000Y-88715000D02*
X143395000Y-88715000D01*
X145045000Y-98995000D02*
X145045000Y-88715000D01*
X143395000Y-88715000D02*
G75*
G02*
X141395000Y-88715000I-1000000J0D01*
G01*
%TD*%
M02*
